PathFileType  4	(X/Y/Z) W:\OA_GaitRetraining\OpenSimAllSubjects\Subject_114\Gait\Week1\Files_W_HJCs\
DataRate	CameraRate	NumFrames	NumMarkers	Units	OrigDataRate	OrigDataStartFrame	OrigNumFrames
  100.0		  100.0		    8		     57		 mm	  100.0	      231	    460
Frame#	Time	r_knee			r_shank(antsup)			r_ankle			r_calc			r_5meta			r_toe			L_knee			L_shank(ant_sup)			L_ankle			L_calc			L_5meta			L_toe			r_mknee			r_mankle			L_mknee			L_mankle			r_sh2			r_sh3			r_sh4			L_sh2			L_sh3			r_thigh1			r_thigh2			r_thigh3			r_thigh4			r_thigh5			L_thigh1			L_thigh2			L_thigh3			L_thigh4			r.ASIS			r.PSIS			L.ASIS			L.PSIS			C7			R_Shoulder			L_Shoulder			R_Sternum			L_Sternum			R_HJC			L_HJC			R_HJC_reg			L_HJC_reg			midPSIS			midASIS			midHJC			midPelvis			R_KJC			L_KJC			R_AJC			L_AJC			R_AJC_proj			R_5meta_proj			R_toe_proj			L_AJC_proj			L_5meta_proj			L_toe_proj			
		X1	Y1	Z1	X2	Y2	Z2	X3	Y3	Z3	X4	Y4	Z4	X5	Y5	Z5	X6	Y6	Z6	X7	Y7	Z7	X8	Y8	Z8	X9	Y9	Z9	X10	Y10	Z10	X11	Y11	Z11	X12	Y12	Z12	X13	Y13	Z13	X14	Y14	Z14	X15	Y15	Z15	X16	Y16	Z16	X17	Y17	Z17	X18	Y18	Z18	X19	Y19	Z19	X20	Y20	Z20	X21	Y21	Z21	X22	Y22	Z22	X23	Y23	Z23	X24	Y24	Z24	X25	Y25	Z25	X26	Y26	Z26	X27	Y27	Z27	X28	Y28	Z28	X29	Y29	Z29	X30	Y30	Z30	X31	Y31	Z31	X32	Y32	Z32	X33	Y33	Z33	X34	Y34	Z34	X35	Y35	Z35	X36	Y36	Z36	X37	Y37	Z37	X38	Y38	Z38	X39	Y39	Z39	X40	Y40	Z40	X41	Y41	Z41	X42	Y42	Z42	X43	Y43	Z43	X44	Y44	Z44	X45	Y45	Z45	X46	Y46	Z46	X47	Y47	Z47	X48	Y48	Z48	X49	Y49	Z49	X50	Y50	Z50	X51	Y51	Z51	X52	Y52	Z52	X53	Y53	Z53	X54	Y54	Z54	X55	Y55	Z55	X56	Y56	Z56	X57	Y57	Z57	

231	2.30000	1166.794	502.654	-321.640	1219.868	435.814	-324.835	1249.948	111.626	-324.177	1194.516	68.005	-372.032	1361.314	40.537	-301.740	1429.547	80.883	-361.833	980.289	487.407	-692.899	989.780	421.080	-667.472	808.963	116.268	-658.907	740.184	75.654	-599.698	893.974	42.313	-692.576	967.834	78.060	-641.299	1221.370	499.984	-461.105	1290.391	128.243	-413.312	990.160	472.157	-541.402	838.507	122.360	-563.634	1237.340	326.832	-313.278	1139.508	421.826	-315.396	1156.921	307.844	-308.233	910.317	454.391	-700.076	877.578	337.560	-708.058	1133.026	781.363	-294.024	1173.909	689.284	-300.684	1132.178	631.596	-290.718	1029.269	735.928	-294.322	1071.263	634.630	-304.143	1104.719	711.563	-706.480	1085.524	586.261	-680.444	1013.216	729.056	-753.381	975.541	603.596	-720.773	1152.811	954.042	-347.874	908.468	1019.488	-463.811	1156.063	949.246	-688.803	905.906	1024.237	-551.715	957.865	1399.052	-519.146	1065.318	1406.402	-408.195	1056.522	1383.151	-648.116	1110.793	1328.149	-505.635	1109.201	1330.479	-551.945	1043.647	864.824	-426.141	1037.789	846.610	-610.492	1061.408	852.314	-400.943	1054.859	864.448	-625.566	907.187	1021.862	-507.763	1154.437	951.644	-518.339	1040.718	855.717	-518.316	1030.812	986.753	-513.051	1194.082	501.319	-391.372	985.224	479.782	-617.151	1270.169	119.934	-368.745	823.735	119.314	-611.271	1270.169	0.000	-368.745	1361.314	0.000	-301.740	1429.547	0.000	-361.833	823.735	0.000	-611.271	893.974	0.000	-692.576	967.834	0.000	-641.299
232	2.31000	1166.721	502.688	-321.647	1219.866	435.727	-324.912	1250.014	111.620	-324.246	1194.562	68.032	-372.001	1361.309	40.613	-301.622	1429.629	81.210	-361.712	980.420	487.410	-692.960	989.826	421.060	-667.482	809.084	116.289	-658.849	740.229	75.805	-599.623	893.827	42.339	-692.609	967.852	78.045	-641.324	1221.346	500.069	-461.083	1290.429	128.236	-413.310	990.217	472.450	-541.413	838.524	122.425	-563.604	1237.357	326.916	-313.302	1139.561	421.961	-315.405	1156.806	307.841	-308.310	910.429	454.417	-700.149	877.765	337.448	-708.054	1132.967	781.336	-294.091	1173.886	689.274	-300.710	1132.102	631.542	-290.706	1029.273	736.018	-294.207	1071.117	634.537	-304.233	1104.745	711.566	-706.544	1085.631	586.265	-680.466	1013.377	728.959	-753.396	975.560	603.639	-720.859	1152.808	954.090	-347.855	908.411	1019.530	-463.823	1156.035	949.279	-688.826	905.871	1024.237	-551.744	957.849	1399.016	-519.146	1065.043	1406.130	-408.207	1056.340	1383.144	-648.112	1110.793	1328.149	-505.635	1109.167	1330.448	-551.943	1043.629	864.864	-426.141	1037.773	846.633	-610.491	1061.342	852.411	-400.907	1054.852	864.438	-625.566	907.141	1021.884	-507.783	1154.421	951.684	-518.340	1040.701	855.749	-518.316	1030.781	986.784	-513.062	1194.034	501.378	-391.365	985.319	479.930	-617.186	1270.222	119.928	-368.778	823.804	119.357	-611.227	1270.222	0.000	-368.778	1361.309	0.000	-301.622	1429.629	0.000	-361.712	823.804	0.000	-611.227	893.827	0.000	-692.609	967.852	0.000	-641.324
233	2.32000	1166.627	502.606	-321.699	1219.818	435.583	-325.052	1250.013	111.610	-324.193	1194.496	68.041	-372.004	1361.251	40.841	-301.515	1429.556	81.079	-361.760	980.477	487.372	-692.963	989.886	421.154	-667.414	809.016	116.330	-658.874	740.221	75.807	-599.668	893.903	42.378	-692.531	967.911	78.059	-641.276	1221.215	499.962	-461.139	1290.450	128.242	-413.377	990.199	472.074	-541.781	838.623	122.477	-563.505	1237.300	326.858	-313.322	1139.440	421.925	-315.476	1156.828	307.814	-308.359	910.530	454.468	-700.089	877.804	337.470	-708.082	1132.848	781.275	-294.096	1173.726	689.239	-300.725	1132.068	631.500	-290.753	1029.105	735.979	-294.290	1070.966	634.535	-304.324	1104.763	711.569	-706.531	1085.760	586.292	-680.462	1013.459	729.045	-753.506	975.634	603.589	-720.834	1152.724	954.084	-347.875	908.329	1019.516	-463.828	1156.095	949.408	-688.823	905.849	1024.265	-551.799	957.915	1399.024	-519.107	1064.970	1406.073	-408.212	1056.242	1383.209	-648.165	1110.536	1328.045	-505.258	1109.068	1330.432	-551.990	1043.596	864.864	-426.209	1037.804	846.710	-610.568	1061.271	852.402	-401.035	1054.937	864.528	-625.677	907.089	1021.890	-507.813	1154.410	951.746	-518.349	1040.700	855.787	-518.388	1030.749	986.818	-513.081	1193.921	501.284	-391.419	985.338	479.723	-617.372	1270.231	119.926	-368.785	823.820	119.403	-611.189	1270.231	0.000	-368.785	1361.251	0.000	-301.515	1429.556	0.000	-361.760	823.820	0.000	-611.189	893.903	0.000	-692.531	967.911	0.000	-641.276
234	2.33000	1166.534	502.625	-321.745	1219.820	435.629	-325.034	1249.962	111.696	-324.268	1194.501	68.001	-372.082	1361.313	40.519	-301.721	1429.495	80.944	-361.834	980.594	487.380	-693.014	989.916	421.132	-667.413	809.062	116.452	-658.902	740.264	75.930	-599.681	893.923	42.341	-692.559	967.878	78.017	-641.277	1221.140	499.997	-461.171	1290.443	128.238	-413.355	990.312	472.169	-541.629	838.699	122.579	-563.534	1237.261	326.855	-313.374	1139.434	421.942	-315.496	1156.811	307.830	-308.335	910.542	454.525	-700.131	877.946	337.567	-707.939	1132.713	781.149	-294.117	1173.449	689.069	-300.825	1131.945	631.459	-290.813	1029.012	736.045	-294.343	1070.875	634.443	-304.377	1104.717	711.590	-706.544	1085.778	586.297	-680.516	1013.515	729.165	-753.604	975.705	603.520	-720.811	1152.665	954.084	-347.867	908.324	1019.515	-463.826	1156.060	949.498	-688.886	905.826	1024.288	-551.733	957.806	1399.041	-519.140	1064.884	1406.056	-408.282	1056.179	1383.216	-648.151	1110.536	1328.045	-505.258	1109.025	1330.410	-552.000	1043.581	864.867	-426.243	1037.779	846.769	-610.607	1061.262	852.379	-401.052	1054.878	864.578	-625.734	907.075	1021.902	-507.780	1154.362	951.791	-518.377	1040.680	855.818	-518.425	1030.719	986.846	-513.078	1193.837	501.311	-391.458	985.453	479.775	-617.322	1270.203	119.967	-368.812	823.881	119.515	-611.218	1270.203	0.000	-368.812	1361.313	0.000	-301.721	1429.495	0.000	-361.834	823.881	0.000	-611.218	893.923	0.000	-692.559	967.878	0.000	-641.277
235	2.34000	1166.489	502.668	-321.768	1219.814	435.443	-325.219	1250.004	111.606	-324.214	1194.547	67.991	-372.077	1361.247	40.800	-301.442	1429.455	81.143	-361.820	980.665	487.393	-693.045	989.958	421.091	-667.398	809.118	116.401	-658.833	740.263	75.984	-599.624	893.881	42.257	-692.523	967.892	77.965	-641.327	1221.111	500.049	-461.215	1290.411	128.219	-413.383	990.458	472.259	-541.603	838.677	122.541	-563.413	1237.265	326.883	-313.361	1139.337	421.918	-315.501	1156.748	307.851	-308.350	910.628	454.493	-700.102	877.920	337.582	-708.026	1132.641	781.172	-294.109	1173.401	689.100	-300.773	1131.849	631.435	-290.885	1028.881	736.066	-294.353	1070.807	634.332	-304.515	1104.866	711.670	-706.502	1085.907	586.407	-680.440	1013.679	729.192	-753.524	975.753	603.591	-720.817	1152.626	954.093	-347.867	908.824	1019.372	-463.903	1156.016	949.550	-688.932	905.760	1024.270	-551.757	957.806	1399.030	-519.165	1064.912	1406.118	-408.198	1056.036	1383.206	-648.168	1110.536	1328.045	-505.258	1108.955	1330.434	-552.060	1043.701	864.832	-426.298	1037.873	846.758	-610.664	1062.073	852.177	-400.611	1054.237	864.702	-625.260	907.292	1021.821	-507.830	1154.321	951.821	-518.400	1040.787	855.795	-518.481	1030.806	986.821	-513.115	1193.800	501.358	-391.492	985.561	479.826	-617.324	1270.208	119.913	-368.799	823.897	119.471	-611.123	1270.208	0.000	-368.799	1361.247	0.000	-301.442	1429.455	0.000	-361.820	823.897	0.000	-611.123	893.881	0.000	-692.523	967.892	0.000	-641.327
236	2.35000	1166.460	502.654	-321.814	1219.684	435.646	-324.998	1249.976	111.605	-324.291	1194.514	67.994	-372.085	1361.256	40.617	-301.647	1429.551	81.096	-361.803	980.686	487.423	-693.181	989.933	421.168	-667.372	809.186	116.493	-658.871	740.290	76.052	-599.655	893.875	42.327	-692.568	967.905	77.954	-641.361	1221.096	500.104	-461.296	1290.503	128.267	-413.340	990.424	472.222	-541.772	838.704	122.549	-563.534	1237.224	326.828	-313.395	1139.279	421.905	-315.596	1156.703	307.796	-308.384	910.683	454.595	-700.113	877.977	337.559	-708.000	1132.455	781.022	-294.052	1173.239	689.045	-300.835	1131.711	631.384	-290.893	1028.645	735.917	-294.636	1070.731	634.326	-304.698	1104.797	711.608	-706.550	1085.946	586.477	-680.499	1013.662	729.194	-753.586	975.762	603.584	-720.839	1152.624	954.128	-347.836	908.788	1019.394	-463.988	1156.001	949.617	-688.948	905.822	1024.300	-551.713	957.583	1399.000	-519.191	1065.051	1406.396	-408.171	1056.002	1383.231	-648.196	1110.536	1328.045	-505.258	1108.873	1330.510	-551.963	1043.705	864.864	-426.314	1037.893	846.805	-610.682	1061.968	852.167	-400.707	1054.370	864.732	-625.393	907.305	1021.847	-507.851	1154.313	951.873	-518.392	1040.799	855.835	-518.498	1030.809	986.860	-513.121	1193.778	501.379	-391.555	985.555	479.822	-617.476	1270.240	119.936	-368.815	823.945	119.521	-611.203	1270.240	0.000	-368.815	1361.256	0.000	-301.647	1429.551	0.000	-361.803	823.945	0.000	-611.203	893.875	0.000	-692.568	967.905	0.000	-641.361
237	2.36000	1166.375	502.628	-321.822	1219.609	435.457	-325.207	1249.966	111.566	-324.273	1194.492	67.956	-372.034	1361.256	40.505	-301.675	1429.449	80.819	-361.874	980.623	487.468	-693.130	990.016	421.248	-667.468	809.189	116.522	-658.826	740.306	76.018	-599.655	893.842	42.347	-692.616	967.922	77.958	-641.333	1221.060	500.128	-461.201	1290.411	128.230	-413.402	990.450	472.396	-541.599	838.710	122.617	-563.467	1237.126	326.721	-313.392	1139.338	422.036	-315.546	1156.653	307.821	-308.471	910.636	454.610	-700.240	878.025	337.553	-707.905	1132.303	780.972	-294.080	1173.096	688.996	-300.834	1131.489	631.313	-291.022	1028.542	735.785	-294.730	1070.599	634.229	-304.782	1104.882	711.683	-706.508	1085.982	586.517	-680.421	1013.807	729.106	-753.532	975.775	603.600	-720.856	1152.539	954.156	-347.850	908.797	1019.381	-463.935	1155.994	949.677	-688.966	905.735	1024.212	-551.792	957.529	1399.038	-519.164	1064.786	1406.109	-408.182	1055.952	1383.262	-648.144	1110.536	1328.045	-505.258	1108.873	1330.510	-551.963	1043.698	864.861	-426.333	1037.906	846.809	-610.702	1062.008	852.362	-400.529	1054.178	864.716	-625.221	907.266	1021.796	-507.863	1154.266	951.916	-518.408	1040.802	855.835	-518.518	1030.766	986.856	-513.136	1193.717	501.378	-391.512	985.537	479.932	-617.364	1270.188	119.898	-368.838	823.949	119.569	-611.147	1270.188	0.000	-368.838	1361.256	0.000	-301.675	1429.449	0.000	-361.874	823.949	0.000	-611.147	893.842	0.000	-692.616	967.922	0.000	-641.333
238	2.37000	1166.340	502.659	-321.821	1219.615	435.652	-325.094	1249.978	111.676	-324.252	1194.575	68.053	-372.053	1361.248	40.652	-301.503	1429.507	81.115	-361.847	980.565	487.533	-693.088	990.027	421.284	-667.423	809.230	116.524	-658.761	740.285	76.064	-599.670	893.853	42.347	-692.555	967.910	77.963	-641.292	1220.945	500.043	-461.253	1290.432	128.224	-413.365	990.438	472.281	-541.729	838.721	122.609	-563.378	1237.044	326.757	-313.398	1139.140	421.820	-315.618	1156.618	307.814	-308.467	910.743	454.506	-699.987	877.947	337.578	-707.941	1132.150	780.897	-294.082	1173.025	688.928	-300.809	1131.469	631.367	-291.043	1028.550	736.003	-294.466	1070.490	634.239	-304.855	1104.941	711.822	-706.473	1085.960	586.576	-680.359	1013.710	729.183	-753.606	975.779	603.607	-720.876	1152.483	954.153	-347.837	908.782	1019.399	-463.987	1156.047	949.758	-688.877	905.709	1024.297	-551.784	957.446	1399.032	-519.118	1064.772	1406.094	-408.149	1055.942	1383.233	-648.115	1110.536	1328.045	-505.258	1108.787	1330.493	-552.002	1043.653	864.883	-426.347	1037.922	846.880	-610.723	1062.048	852.306	-400.571	1054.186	864.838	-625.201	907.245	1021.848	-507.886	1154.265	951.955	-518.357	1040.788	855.881	-518.535	1030.755	986.902	-513.121	1193.643	501.351	-391.537	985.502	479.907	-617.408	1270.205	119.950	-368.808	823.975	119.567	-611.069	1270.205	0.000	-368.808	1361.248	0.000	-301.503	1429.507	0.000	-361.847	823.975	0.000	-611.069	893.853	0.000	-692.555	967.910	0.000	-641.292
